<?xml version="1.0" standalone="no"?>
<!DOCTYPE svg PUBLIC "-//W3C//DTD SVG 20010904//EN"
 "http://www.w3.org/TR/2001/REC-SVG-20010904/DTD/svg10.dtd">
<svg version="1.0" xmlns="http://www.w3.org/2000/svg"
 width="500.000000pt" height="500.000000pt" viewBox="0 0 500.000000 500.000000"
 preserveAspectRatio="xMidYMid meet">
<metadata>
Created by potrace 1.14, written by Peter Selinger 2001-2017
</metadata>
<g transform="translate(0.000000,500.000000) scale(0.100000,-0.100000)"
fill="#000000" stroke="none">
<path d="M1583 3928 c-291 -24 -528 -129 -696 -307 -112 -119 -150 -187 -183
-330 -15 -64 -21 -240 -10 -291 3 -14 9 -40 12 -59 43 -226 243 -426 524 -523
55 -19 220 -60 295 -73 22 -4 50 -9 63 -11 12 -2 34 -6 50 -9 15 -3 43 -8 62
-10 19 -3 44 -7 55 -10 11 -2 47 -7 80 -11 33 -3 63 -8 66 -10 3 -2 28 -6 56
-9 119 -13 294 -110 342 -189 18 -29 21 -50 21 -151 0 -134 -10 -164 -71 -219
-47 -43 -119 -80 -224 -117 -79 -27 -83 -28 -290 -25 -161 2 -224 7 -270 20
-157 44 -297 147 -386 284 -26 39 -49 77 -51 83 -4 13 -102 -34 -311 -149
-154 -85 -147 -71 -96 -175 46 -94 99 -167 178 -244 141 -140 292 -222 503
-272 170 -41 266 -50 483 -46 267 4 440 40 610 126 269 134 429 348 469 624
20 133 32 2050 14 2088 -8 16 -40 17 -516 15 l-507 -3 -3 -259 c-1 -163 1
-263 8 -271 7 -9 69 -12 231 -11 121 1 223 -2 225 -6 3 -4 5 -128 5 -275 1
-429 2 -406 -18 -398 -35 13 -239 63 -283 69 -25 4 -56 9 -70 11 -14 2 -47 7
-75 10 -128 14 -155 17 -225 32 -41 8 -85 17 -97 19 -97 19 -223 79 -280 134
-69 66 -70 217 -1 310 66 90 244 158 418 160 30 0 61 4 68 9 11 7 14 56 13
236 0 125 -3 230 -6 233 -8 8 -90 8 -182 0z"/>
<path d="M2969 3924 c-5 -7 -8 -573 -7 -1430 l3 -1419 269 -3 c181 -1 273 1
280 8 8 8 11 355 13 1138 0 620 2 1134 2 1142 1 13 54 15 434 14 237 0 440 3
450 8 16 8 17 31 17 273 0 200 -3 266 -12 272 -21 13 -1438 10 -1449 -3z"/>
</g>
</svg>
